<svg width="23" height="22" viewBox="0 0 23 22" fill="none" xmlns="http://www.w3.org/2000/svg">
<path d="M21.7888 19.2729H1.53442C0.912969 19.2729 0.40918 19.7767 0.40918 20.3982C0.40918 21.0196 0.912969 21.5234 1.53442 21.5234H21.7888C22.4103 21.5234 22.9141 21.0196 22.9141 20.3982C22.9141 19.7767 22.4103 19.2729 21.7888 19.2729Z" fill="#1C638F"/>
<path d="M11.6613 0.143556C11.0399 0.143556 10.5361 0.647345 10.5361 1.2688V13.1851L6.83405 9.47183C6.39281 9.0306 5.67743 9.0306 5.2362 9.47183C4.79497 9.91306 4.79497 10.6284 5.2362 11.0697L10.8624 16.6959C11.0737 16.9089 11.3613 17.0287 11.6613 17.0287C11.9614 17.0287 12.249 16.9089 12.4603 16.6959L18.0865 11.0697C18.5277 10.6284 18.5277 9.91306 18.0865 9.47183C17.6453 9.0306 16.9299 9.0306 16.4886 9.47183L12.7866 13.1851V1.2688C12.7866 0.647344 12.2828 0.143556 11.6613 0.143556Z" fill="#1C638F"/>
</svg>
