<svg width="74" height="74" viewBox="0 0 74 74" fill="none" xmlns="http://www.w3.org/2000/svg">
<path d="M36.9996 0.569336C16.7665 0.569336 0.364258 16.9716 0.364258 37.2047C0.364258 57.4378 16.7665 73.8401 36.9996 73.8401C57.2328 73.8401 73.635 57.4378 73.635 37.2047C73.6135 16.9806 57.2239 0.590955 36.9996 0.569336ZM52.4282 38.372C52.1746 38.8807 51.7623 39.2932 51.2534 39.5468V39.5598L30.3189 50.0271C29.026 50.6731 27.4544 50.1489 26.8083 48.856C26.6246 48.4885 26.53 48.0828 26.5323 47.672V26.7375C26.5317 25.2923 27.7027 24.1202 29.1479 24.1194C29.5544 24.1193 29.9554 24.2137 30.3189 24.3954L51.2534 34.8628C52.5469 35.5073 53.0729 37.0785 52.4282 38.372Z" fill="white"/>
</svg>
