<svg width="24" height="23" viewBox="0 0 24 23" fill="none" xmlns="http://www.w3.org/2000/svg">
<path d="M10.8512 0.178528C5.33893 0.178528 0.848633 4.66876 0.848633 10.1811C0.848633 15.6934 5.33893 20.1926 10.8512 20.1926C13.2057 20.1926 15.3711 19.3674 17.0825 17.9974L21.249 22.1617C21.6837 22.597 22.389 22.5975 22.8244 22.1628C23.2598 21.728 23.2602 21.0226 22.8255 20.5872L18.6588 16.4211C20.0299 14.7071 20.856 12.5384 20.856 10.1811C20.856 4.66876 16.3636 0.178528 10.8512 0.178528ZM10.8512 2.40179C15.162 2.40179 18.6306 5.87042 18.6306 10.1811C18.6306 14.4919 15.162 17.9692 10.8512 17.9692C6.54045 17.9692 3.07189 14.492 3.07189 10.1811C3.07189 5.8703 6.54045 2.40179 10.8512 2.40179Z" fill="white"/>
</svg>
