<svg width="31" height="20" viewBox="0 0 31 20" fill="none" xmlns="http://www.w3.org/2000/svg">
<path d="M30.282 9.25366C30.0156 8.88936 23.6703 0.333496 15.5661 0.333496C7.46196 0.333496 1.11632 8.88936 0.8503 9.25331C0.598077 9.59892 0.598077 10.0677 0.8503 10.4133C1.11632 10.7776 7.46196 19.3335 15.5661 19.3335C23.6703 19.3335 30.0156 10.7775 30.282 10.4136C30.5345 10.068 30.5345 9.59892 30.282 9.25366ZM15.5661 17.368C9.59655 17.368 4.42626 11.6893 2.89574 9.83281C4.42428 7.97472 9.58374 2.299 15.5661 2.299C21.5354 2.299 26.7054 7.97671 28.2365 9.83414C26.708 11.6922 21.5485 17.368 15.5661 17.368Z" fill="#1C638F"/>
<path d="M15.5665 3.93701C12.3152 3.93701 9.66992 6.58228 9.66992 9.83357C9.66992 13.0849 12.3152 15.7301 15.5665 15.7301C18.8178 15.7301 21.4631 13.0849 21.4631 9.83357C21.4631 6.58228 18.8178 3.93701 15.5665 3.93701ZM15.5665 13.7646C13.3988 13.7646 11.6355 12.0012 11.6355 9.83357C11.6355 7.66599 13.3989 5.90257 15.5665 5.90257C17.7341 5.90257 19.4975 7.66599 19.4975 9.83357C19.4975 12.0012 17.7341 13.7646 15.5665 13.7646Z" fill="#1C638F"/>
</svg>
