<svg width="17" height="17" viewBox="0 0 17 17" fill="none" xmlns="http://www.w3.org/2000/svg">
<path d="M12.67 9.55966C12.638 9.5443 11.44 8.95436 11.2271 8.87773C11.1402 8.84653 11.0471 8.81606 10.948 8.81606C10.7863 8.81606 10.6504 8.89667 10.5445 9.05504C10.4249 9.23291 10.0626 9.65639 9.95064 9.78288C9.93602 9.79959 9.91606 9.81955 9.90411 9.81955C9.89339 9.81955 9.70798 9.74319 9.65186 9.71881C8.36671 9.16057 7.39122 7.81812 7.25748 7.59174C7.23837 7.55919 7.23756 7.5444 7.23741 7.5444C7.24211 7.52718 7.28532 7.48386 7.30762 7.4615C7.37288 7.39693 7.44357 7.31184 7.51196 7.22951C7.54436 7.19051 7.57678 7.15146 7.60864 7.11464C7.70789 6.99918 7.75206 6.90955 7.80328 6.80573L7.83012 6.75177C7.95518 6.5033 7.84837 6.29362 7.81384 6.22592C7.78551 6.16927 7.27966 4.94841 7.22589 4.82013C7.09654 4.51062 6.92566 4.36652 6.68819 4.36652C6.66614 4.36652 6.68819 4.36652 6.59578 4.37041C6.48325 4.37515 5.87047 4.45583 5.59953 4.62662C5.31223 4.80775 4.82617 5.38516 4.82617 6.40059C4.82617 7.3145 5.40613 8.17741 5.65514 8.50558C5.66132 8.51385 5.67268 8.53067 5.68918 8.55478C6.64278 9.94743 7.83156 10.9795 9.03668 11.4609C10.1969 11.9244 10.7463 11.9779 11.0586 11.9779C11.1898 11.9779 11.295 11.9677 11.3876 11.9585L11.4464 11.9529C11.8472 11.9174 12.728 11.461 12.9283 10.9042C13.0862 10.4657 13.1278 9.9866 13.0228 9.81271C12.9509 9.69449 12.8269 9.63499 12.67 9.55966Z" fill="#1C638F"/>
<path d="M8.87219 0.116943C4.42159 0.116943 0.800748 3.71057 0.800748 8.12772C0.800748 9.55639 1.18308 10.9549 1.90737 12.1788L0.521064 16.2682C0.495241 16.3444 0.514448 16.4287 0.570844 16.4861C0.611553 16.5277 0.666775 16.5501 0.723171 16.5501C0.744779 16.5501 0.766548 16.5468 0.787783 16.54L5.05186 15.1851C6.21872 15.8085 7.53753 16.1376 8.87224 16.1376C13.3224 16.1376 16.9429 12.5444 16.9429 8.12772C16.9429 3.71057 13.3224 0.116943 8.87219 0.116943ZM8.87219 14.4689C7.61628 14.4689 6.39986 14.1063 5.35422 13.4202C5.31906 13.397 5.27824 13.3852 5.23716 13.3852C5.21545 13.3852 5.19368 13.3885 5.17249 13.3952L3.03645 14.0742L3.72601 12.0399C3.74831 11.974 3.73716 11.9014 3.69607 11.8453C2.89981 10.7573 2.4789 9.47183 2.4789 8.12772C2.4789 4.63072 5.34691 1.78565 8.87214 1.78565C12.3969 1.78565 15.2646 4.63072 15.2646 8.12772C15.2647 11.6243 12.397 14.4689 8.87219 14.4689Z" fill="#1C638F"/>
</svg>
